<?xml version="1.0" encoding="utf-8"?>
<!-- Generator: Adobe Illustrator 23.1.1, SVG Export Plug-In . SVG Version: 6.00 Build 0)  -->
<svg version="1.1" id="Layer_1" xmlns="http://www.w3.org/2000/svg" xmlns:xlink="http://www.w3.org/1999/xlink" x="0px" y="0px"
	 viewBox="0 0 212 210" style="enable-background:new 0 0 212 210;" xml:space="preserve">
<style type="text/css">
	.st0{fill:#FCE4DF;}
	.st1{fill:#F6F5F3;}
	.st2{fill:#FFFFFF;}
	.st3{fill:#423745;}
	.st4{clip-path:url(#SVGID_2_);}
	.st5{fill:#E9EDFF;}
	.st6{fill:none;}
	.st7{fill:#413746;}
	.st8{clip-path:url(#SVGID_4_);}
	.st9{fill:#F2E6FF;}
	.st10{clip-path:url(#SVGID_6_);}
	.st11{fill:#DEF9F9;}
	.st12{clip-path:url(#SVGID_8_);}
	.st13{fill:#DFF7DF;}
	.st14{clip-path:url(#SVGID_10_);}
	.st15{fill:#A9E0A9;}
	.st16{opacity:0.38;}
	.st17{fill:#E1CDF9;}
	.st18{fill:none;stroke:#413746;stroke-width:0.9925;stroke-miterlimit:10;}
	.st19{fill:#F3E8F9;}
	.st20{fill:#FFFFFF;stroke:#423745;stroke-miterlimit:10;}
	.st21{fill:none;stroke:#F3E8F9;stroke-width:1.25;stroke-miterlimit:10;}
	.st22{fill:none;stroke:#413746;stroke-width:0.9953;stroke-miterlimit:10;}
	.st23{fill:none;stroke:#413746;stroke-width:0.5;stroke-miterlimit:10;}
	.st24{fill:none;stroke:#423745;stroke-width:1.25;stroke-miterlimit:10;}
	.st25{fill:#F4F2DF;}
	.st26{fill:#FCC8DA;}
	.st27{fill:#F4F1EE;}
	.st28{fill:#F9D7D7;}
	.st29{fill:#F99191;}
	.st30{fill:#D37D7D;}
	.st31{fill:#FFFFFF;stroke:#413746;stroke-width:2;stroke-miterlimit:10;}
	.st32{fill:none;stroke:#413746;stroke-width:2;stroke-miterlimit:10;}
</style>
<g>
	<g>
		<g>
			<path class="st9" d="M169.2,103.7c-2,1-4.7,1.7-8.1,2.2c-3.2,0.5-6.8,0.7-10.7,0.7c-4.7,0-9.7-0.3-14.9-1
				c-13-1.6-26.4-5.4-32.1-10.1l0.7,5.1c4.3,4.2,16.5,8,31.2,9.1C152.3,111.1,166.6,108.4,169.2,103.7z"/>
		</g>
		<g>
			<path class="st9" d="M160.7,103.4c4.4-0.6,7.1-1.6,8.6-2.6c-2.3-4.9-15.8-9.6-32.5-10.9c-14.1-1.1-26.4,0.5-31.7,3.8
				c4.4,3.4,15.1,7.4,30.7,9.4C145.1,104.2,153.9,104.3,160.7,103.4z"/>
		</g>
		<g>
			<path class="st9" d="M62.9,107.8c17.6,0,31.8-4.4,31.8-9.8l0,0c0-0.8-0.3-1.5-0.9-2.2c-5,4.7-18.1,7.6-30.8,8.1
				c-1.4,0.1-2.9,0.1-4.3,0.1c-7.1,0-13.8-0.8-19.1-2.2c-3.9-1.1-6.8-2.4-8.6-4c0,0.1-0.1,0.2-0.1,0.4
				C31,103.5,45.3,107.8,62.9,107.8z"/>
		</g>
		<g>
			<path class="st9" d="M32.3,95.4c1.1,1.3,3.6,2.7,8,3.9c6.1,1.6,14.1,2.4,22.6,2c14.5-0.6,25.4-3.9,29.1-7.2
				c-5-3.4-16.1-5.7-29.1-5.7C48.4,88.4,36.2,91.4,32.3,95.4z"/>
		</g>
		<g>
			<path class="st7" d="M188.8,163c-1.9-5.8-16.6-4.7-29.9-0.7L147,124.9c11.3-3.9,20.8-11.6,24.9-20.4c2.5-5.4,2.8-10.9,0.8-15.7
				c-0.6-1.5-2.8-5.4-2.9-5.6l-22.6-43.2l0,0c-1.1-3-4.8-4.9-10.4-5.3c-5.4-0.4-12.1,0.6-18.8,2.7C105.8,41.4,97,47.9,95.6,53.5
				c-0.5-2.7-2.9-5.4-7.1-7.8c-4.7-2.6-11.2-4.6-18.1-5.6c-14.9-2-27.2,1.2-28.3,7.5l0,0L27.1,94.1l0,0c-0.1,0.3-1.6,4.5-1.9,6
				c-1.2,5.1,0,10.4,3.4,15.3c5.5,7.9,16.2,13.9,28,15.8L51.3,170c-13.9-1.7-28.6-0.3-29.4,5.8c-0.4,2.9,2.4,5.8,8.2,8.4
				c5.2,2.4,12.3,4.2,19.9,5.3c4,0.5,8,0.8,11.8,0.8c9.9,0,18.2-1.9,18.8-6.5c0.4-2.9-2.4-5.8-8.2-8.4c-4.9-2.2-11.5-4-18.6-5.1
				l5.3-38.8c1.9,0.2,3.8,0.3,5.6,0.3c9.9,0,19.3-2.9,25.6-8.1c4.6-3.8,7.2-8.6,7.4-13.8c0.1-1.6-0.2-6-0.2-6.3h0l-1.8-45.3
				l6.2,46.4l0,0c0,0.3,0.5,4.7,0.8,6.2c1.1,5.1,4.5,9.4,9.7,12.4c5,2.9,11.4,4.3,18.2,4.3c4.6,0,9.3-0.7,13.9-2l11.9,37.4
				c-6.8,2.3-13,5.1-17.5,8.2c-5.2,3.5-7.5,6.9-6.6,9.7c0.9,2.7,4.4,4.1,10.3,4.1c0.2,0,0.4,0,0.7,0c5.7-0.1,12.9-1.4,20.2-3.8
				C177.2,176.9,190.7,169,188.8,163z M102.9,90.5c0.2-1.5,2.9-3.4,10.1-4.4c3.1-0.4,6.6-0.7,10.3-0.7c4.5,0,9.5,0.3,14.6,1
				c21,2.6,33.3,9.1,32.9,12.6c-0.1,0.6-0.5,1.2-1.5,1.8c-1.5,1-4.2,1.9-8.6,2.6c-6.8,1-15.6,0.9-24.9-0.3
				c-15.6-1.9-26.4-6-30.7-9.4C103.5,92.5,102.8,91.4,102.9,90.5z M92,94.1c-3.7,3.3-14.6,6.6-29.1,7.2c-8.5,0.3-16.5-0.4-22.6-2
				c-4.4-1.2-6.9-2.6-8-3.9c-0.5-0.6-0.8-1.1-0.8-1.5c-0.1-1.9,3.1-4.1,8.3-5.8c5.8-1.9,13.8-3.2,22.4-3.6c1.5-0.1,3-0.1,4.5-0.1
				c15.8,0,26.5,3.6,26.7,7.2C93.4,92.4,92.9,93.3,92,94.1z M62.1,81.9c-8.8,0.4-17,1.7-23.1,3.7c-3.6,1.2-6.2,2.6-7.9,4.1
				l12.2-38.2c3.8,3.9,13.9,7.1,24.2,8.5c6.9,1,13.6,1.1,18.7,0.4c3-0.4,5.3-1.1,6.8-2l1.2,29.9C89.7,83.4,75.5,81.4,62.1,81.9z
				 M70,42.7c6.7,0.9,12.8,2.8,17.2,5.3c4,2.3,6.2,4.7,5.9,6.8c-0.1,1-2.4,2.3-7.1,3c-4.9,0.7-11.3,0.6-18-0.4
				c-14.8-2-23.8-6.8-23.5-9.2C45,44,55.6,40.7,70,42.7z M78,183.5c-0.4,3-11.2,5.7-27.8,3.4c-7.4-1-14.2-2.8-19.2-5.1
				c-5.2-2.3-6.8-4.5-6.7-5.7c0.3-2.2,6.3-4.3,16.2-4.3c3.4,0,7.3,0.3,11.6,0.8c7.4,1,14.2,2.8,19.2,5.1
				C76.5,180.1,78.2,182.3,78,183.5z M95,103.8c0.1,1.3,0.3,4.8,0.2,6c-0.2,4.5-2.5,8.6-6.5,12c-7.1,5.9-18.8,8.6-30.5,7.1
				c-11.7-1.6-22.2-7.3-27.5-15c-3-4.3-4-8.9-3-13.3c0.2-1,1.2-3.8,1.7-5.2c0.3,0.8,0.9,1.6,1.8,2.4c1.8,1.6,4.6,2.9,8.6,4
				c5.3,1.4,12,2.2,19.1,2.2c1.4,0,2.8,0,4.3-0.1c12.7-0.5,25.8-3.4,30.8-8.1c0.3-0.3,0.5-0.5,0.8-0.8l0.1,3l0,0L95,103.8 M98,55.9
				c-1.3-4,6.9-11.5,20.7-15.9c6.4-2,12.7-3,17.8-2.6c4.6,0.3,7.6,1.6,8.2,3.7c0.3,1-1.2,3.1-5.1,5.7c-4.1,2.7-10,5.3-16.4,7.4
				c-6.5,2.1-12.7,3.3-17.7,3.4C100.8,57.8,98.3,56.9,98,55.9z M167.5,84.5c0.6,1.1,2.3,4.2,2.8,5.3c0.7,1.6,1,3.3,1.1,5.1
				c-5-5.2-19.3-9.3-33.2-11.1c-9.5-1.2-18.6-1.3-25.6-0.3c-4.9,0.7-8.4,1.9-10.4,3.6l-3.7-27.8c1.7,0.6,4.1,0.9,7.1,0.8
				c5.2-0.2,11.7-1.4,18.4-3.6c6.7-2.1,12.7-4.9,17.1-7.7c2.5-1.7,4.3-3.3,5.3-4.8L167.5,84.5 M104.5,104.5l-0.5-3.9l-0.7-5.1
				c5.8,4.7,19.1,8.5,32.1,10.1c5.2,0.6,10.2,1,14.9,1c3.9,0,7.5-0.2,10.7-0.7c3.4-0.5,6.1-1.2,8.1-2.2c0.1-0.1,0.2-0.1,0.3-0.2
				c-3.9,8.4-13.3,15.8-24.5,19.4c-11.2,3.6-23.2,2.9-31.3-1.7c-4.5-2.6-7.5-6.3-8.4-10.7C105,109.3,104.7,105.8,104.5,104.5
				 M162.8,178.8c-7.1,2.3-14,3.5-19.5,3.6c-5.7,0.1-8.1-1.1-8.5-2.3c-0.4-1.2,0.9-3.6,5.6-6.8c4.5-3.1,10.9-6,18-8.3
				c8.2-2.6,15.2-3.6,20.1-3.6c4.6,0,7.4,0.9,7.9,2.3C187.3,166.6,178.7,173.7,162.8,178.8z"/>
		</g>
		<g>
			<g>
				<path class="st7" d="M95.1,29.4c-0.7,0-1.3-0.6-1.3-1.3V16.3c0-0.7,0.6-1.3,1.3-1.3s1.3,0.6,1.3,1.3v11.8
					C96.4,28.8,95.8,29.4,95.1,29.4z"/>
			</g>
		</g>
		<g>
			<g>
				<path class="st7" d="M88.5,29c-0.3,0-0.6-0.1-0.8-0.3L81,23.1c-0.5-0.5-0.6-1.3-0.2-1.8c0.5-0.5,1.3-0.6,1.8-0.2l6.6,5.6
					c0.5,0.5,0.6,1.3,0.2,1.8C89.2,28.9,88.8,29,88.5,29z"/>
			</g>
		</g>
		<g>
			<g>
				<path class="st7" d="M101.4,28.9c-0.4,0-0.7-0.2-1-0.5c-0.5-0.5-0.4-1.4,0.2-1.8l6.6-5.4c0.5-0.5,1.4-0.4,1.8,0.2
					c0.5,0.5,0.4,1.4-0.2,1.8l-6.6,5.4C102,28.8,101.7,28.9,101.4,28.9z"/>
			</g>
		</g>
	</g>
</g>
</svg>
